<svg width="98" height="96" viewBox="0 0 98 96" fill="none" xmlns="http://www.w3.org/2000/svg">
<path fill-rule="evenodd" clip-rule="evenodd" d="M73 28.5V0.5L67.0708 7.79753C60.1244 4.37103 52.4109 2.7243 44.629 3.03767C35.4945 3.4055 26.6711 6.45772 19.2618 11.8128C11.8524 17.1678 6.18598 24.5881 2.97077 33.146C-0.244445 41.7038 -0.865753 51.0196 1.18451 59.9286C3.23478 68.8377 7.86566 76.9447 14.4982 83.2363C21.1308 89.5278 29.4707 93.7248 38.4755 95.3024C47.4803 96.88 56.7503 95.7683 65.1267 92.1063C66.8043 91.3729 68.4311 90.5437 70 89.6249V64.936C67.0088 69.4899 62.7578 73.0781 57.7626 75.2619C52.6978 77.4761 47.0927 78.1483 41.648 77.1944C36.2033 76.2405 31.1605 73.7028 27.1501 69.8986C23.1398 66.0944 20.3397 61.1925 19.1 55.8057C17.8603 50.4188 18.236 44.7861 20.1801 39.6115C22.1242 34.437 25.5504 29.9504 30.0304 26.7124C34.5105 23.4745 39.8456 21.629 45.3687 21.4066C48.7514 21.2704 52.1128 21.7467 55.2958 22.795L23 64H45.5L73 28.5ZM70 64H49L97.5 0.5V58.5L80.5 80.5V50L70 64Z" fill="white"/>
</svg>
