<svg width="32" height="32" viewBox="0 0 32 33" fill="none" xmlns="http://www.w3.org/2000/svg">
<path fill-rule="evenodd" clip-rule="evenodd" d="M23.959 9.88219V0.5L22.013 2.94525C19.7331 1.7971 17.2015 1.24532 14.6475 1.35032C11.6495 1.47357 8.75359 2.4963 6.32181 4.29067C3.89003 6.08503 2.03027 8.5714 0.975021 11.439C-0.080228 14.3065 -0.284145 17.428 0.388764 20.4132C1.06167 23.3985 2.58155 26.115 4.75839 28.2231C6.93523 30.3313 9.67245 31.7376 12.6279 32.2662C15.5833 32.7949 18.6257 32.4224 21.3749 31.1953C21.9255 30.9495 22.4594 30.6717 22.9744 30.3638V22.0911C21.9926 23.617 20.5974 24.8193 18.958 25.5511C17.2957 26.293 15.4561 26.5183 13.6691 26.1986C11.8821 25.879 10.227 25.0287 8.91082 23.754C7.59459 22.4793 6.6756 20.8367 6.26873 19.0317C5.86185 17.2267 5.98515 15.3393 6.62321 13.6054C7.26126 11.8716 8.38577 10.3682 9.85614 9.28323C11.3265 8.19827 13.0775 7.57987 14.8903 7.50534C16.0005 7.4597 17.1037 7.61931 18.1484 7.97059L7.54872 21.7775H14.9333L23.959 9.88219ZM22.9744 21.7775H16.0821L32 0.5V19.9345L26.4205 27.3063V17.0864L22.9744 21.7775Z" fill="black"/>
</svg>
